<?xml version="1.0" encoding="UTF-8"?>
<svg width="100" height="100" viewBox="0 0 100 100" fill="none" xmlns="http://www.w3.org/2000/svg">
    <!-- Fond de l'avatar -->
    <circle cx="50" cy="50" r="50" fill="#29abb4" fill-opacity="0.1"/>
    
    <!-- Silhouette -->
    <path d="M50 45 C42 45 35 38 35 30 C35 22 42 15 50 15 C58 15 65 22 65 30 C65 38 58 45 50 45 Z" 
          fill="#4A5568"/>
    <path d="M25 85 C25 70 35 60 50 60 C65 60 75 70 75 85" 
          fill="#4A5568"/>
    
    <!-- Badge spécialité -->
    <circle cx="75" cy="75" r="15" fill="#29abb4"/>
    <path d="M68 75 C68 72 72 72 72 75 C72 78 68 78 68 75" 
          stroke="white" 
          stroke-width="2" 
          fill="none"/>
    <path d="M78 75 C78 72 82 72 82 75" 
          stroke="white" 
          stroke-width="2" 
          fill="none"/>
</svg>
